# xmcd CD database file
#
# Track frame offsets:
#	150
#	20400
#	37252
#	55787
#	76437
#	84422
#	105132
#	119890
#	128667
#	159312
#	166562
#	195027
#
# Disc length: 2828 seconds
#
# Revision: 0
# Processed by: cddbd v1.5.1PL0 Copyright (c) Steve Scherf et al.
# Submitted via: CDex 1.51
#
DISCID=840b0a0c
DTITLE=Henning Gravrok Band - Hyss
DYEAR=1996
DGENRE=Jazz
TTITLE0=Black Man
TTITLE1=Syrin
TTITLE2=Det Var i Dag
TTITLE3=Striptease
TTITLE4=Hvis Du Vil
TTITLE5=Lavmælt
TTITLE6=Bly
TTITLE7=Sannheten
TTITLE8=Den Nye Døden
TTITLE9=August
TTITLE10=Høst
TTITLE11=Hyss
EXTD=YEAR: 1996
EXTT0=
EXTT1=
EXTT2=
EXTT3=
EXTT4=
EXTT5=
EXTT6=
EXTT7=
EXTT8=
EXTT9=
EXTT10=
EXTT11=
PLAYORDER=
